<svg data-v-0dd9719b="" version="1.0" xmlns="http://www.w3.org/2000/svg" xmlns:xlink="http://www.w3.org/1999/xlink" width="100%" height="100%" viewBox="0 0 340.000000 250.000000" preserveAspectRatio="xMidYMid meet" color-interpolation-filters="sRGB" style="margin: auto;"> <rect data-v-0dd9719b="" x="0" y="0" width="100%" height="100%" fill="#ffffff" fill-opacity="1" class="background"></rect> <rect data-v-0dd9719b="" x="0" y="0" width="100%" height="100%" fill="url(#watermark)" fill-opacity="1" class="watermarklayer"></rect> <g data-v-0dd9719b="" fill="#303947" class="icon-text-wrapper icon-svg-group iconsvg" transform="translate(63.433929443359375,93.94311904907227)"><g fill="#fc4349" class="iconsvg-imagesvg icon_container" transform="translate(0,0)"><rect fill="#303947" fill-opacity="0" stroke-width="2" x="0" y="0" width="62.113761467889915" height="62.113761467889915" class="image-rect"></rect> <svg viewBox="0 0 60 60" x="0" y="0" width="62.113761467889915" height="62.113761467889915" class="image-svg-svg bn" style="overflow: visible;"><g hollow-target="iconBnOutline"><g mask="url(#96497e2f-f344-4447-b763-e17f5e35f080)"><svg fill="#000000" xmlns="http://www.w3.org/2000/svg" xmlns:xlink="http://www.w3.org/1999/xlink" version="1.1" x="0" y="0" viewBox="5 5 90 90" enable-background="new 0 0 100 100" xml:space="preserve" style="overflow: visible;" width="60" height="60" filtersec="colorsf1693841349" filter="url(#FT82Ct-Bd_6B7RUbZ7mEp)"><g transform="scale(1, 1) skewX(0)"><path d="M75.921,5H24.305C13.752,5,5,13.752,5,24.305v51.616C5,86.472,13.752,95,24.305,95h51.616C86.472,95,95,86.472,95,75.921  V24.305C95,13.752,86.472,5,75.921,5z"></path></g><defs><filter id="FT82Ct-Bd_6B7RUbZ7mEp"><feColorMatrix type="matrix" values="0 0 0 0 0.984375  0 0 0 0 0.26171875  0 0 0 0 0.28515625  0 0 0 1 0"></feColorMatrix></filter></defs></svg></g> <g filter="url(#colors8385527160)"><svg xmlns="http://www.w3.org/2000/svg" xmlns:xlink="http://www.w3.org/1999/xlink" viewBox="0 0 39.24 58.03200000000001" width="33" height="33" x="13.5" y="13.5" class="image-svg-letter"><path transform="translate(-2.3040000000000003 51.76800000000001)" d="M18.00 6.26Q12.74 6.26 9.22 3.74Q5.69 1.22 4.00-2.81Q2.30-6.84 2.30-11.52L2.30-11.52Q2.30-20.81 6.88-30.20Q11.45-39.60 18.58-45.68Q25.70-51.77 32.90-51.77L32.90-51.77Q36.29-51.77 38.34-50.18Q40.39-48.60 40.39-45.22L40.39-45.22Q40.39-42.34 39.06-38.59Q37.73-34.85 35.68-32.22Q33.62-29.59 31.54-29.59L31.54-29.59Q29.74-29.59 28.58-31.82L28.58-31.82Q31.32-34.85 33.88-39.02Q36.43-43.20 36.43-45.79L36.43-45.79Q36.43-48.60 33.19-48.60L33.19-48.60Q28.15-48.60 22.50-42.48Q16.85-36.36 13.07-27.43Q9.29-18.50 9.29-10.87L9.29-10.87Q9.29-5.11 11.88-1.15Q14.47 2.81 19.73 2.81L19.73 2.81Q23.47 2.81 27.36 0.68Q31.25-1.44 34.49-4.97Q37.73-8.50 39.67-12.60L39.67-12.60L41.54-11.38Q37.44-3.60 31.36 1.33Q25.27 6.26 18.00 6.26L18.00 6.26Z"></path></svg></g></g><mask id="96497e2f-f344-4447-b763-e17f5e35f080"><g fill="white"><svg xmlns="http://www.w3.org/2000/svg" xmlns:xlink="http://www.w3.org/1999/xlink" version="1.1" x="0" y="0" viewBox="5 5 90 90" enable-background="new 0 0 100 100" xml:space="preserve" style="overflow: visible;" width="60" height="60" filtersec="colorsf1693841349"><g transform="scale(1, 1) skewX(0)"><path d="M75.921,5H24.305C13.752,5,5,13.752,5,24.305v51.616C5,86.472,13.752,95,24.305,95h51.616C86.472,95,95,86.472,95,75.921  V24.305C95,13.752,86.472,5,75.921,5z"></path></g><defs></defs></svg></g> <g fill="black" filter="url(#e4cabbed-b672-4fcf-a689-ed64781ce731)"><svg xmlns="http://www.w3.org/2000/svg" xmlns:xlink="http://www.w3.org/1999/xlink" viewBox="0 0 39.24 58.03200000000001" width="33" height="33" x="13.5" y="13.5" class="image-svg-letter"><path transform="translate(-2.3040000000000003 51.76800000000001)" d="M18.00 6.26Q12.74 6.26 9.22 3.74Q5.69 1.22 4.00-2.81Q2.30-6.84 2.30-11.52L2.30-11.52Q2.30-20.81 6.88-30.20Q11.45-39.60 18.58-45.68Q25.70-51.77 32.90-51.77L32.90-51.77Q36.29-51.77 38.34-50.18Q40.39-48.60 40.39-45.22L40.39-45.22Q40.39-42.34 39.06-38.59Q37.73-34.85 35.68-32.22Q33.62-29.59 31.54-29.59L31.54-29.59Q29.74-29.59 28.58-31.82L28.58-31.82Q31.32-34.85 33.88-39.02Q36.43-43.20 36.43-45.79L36.43-45.79Q36.43-48.60 33.19-48.60L33.19-48.60Q28.15-48.60 22.50-42.48Q16.85-36.36 13.07-27.43Q9.29-18.50 9.29-10.87L9.29-10.87Q9.29-5.11 11.88-1.15Q14.47 2.81 19.73 2.81L19.73 2.81Q23.47 2.81 27.36 0.68Q31.25-1.44 34.49-4.97Q37.73-8.50 39.67-12.60L39.67-12.60L41.54-11.38Q37.44-3.60 31.36 1.33Q25.27 6.26 18.00 6.26L18.00 6.26Z"></path></svg></g><defs><filter id="e4cabbed-b672-4fcf-a689-ed64781ce731"><feGaussianBlur in="SourceGraphic" stdDeviation="1.26"></feGaussianBlur><feComponentTransfer><feFuncA type="discrete" tableValues="0 1 1 1 1 1 1 1 1 1 1 1 1 1 0"></feFuncA></feComponentTransfer></filter></defs></mask></svg> <defs><filter id="colors8385527160"><feColorMatrix type="matrix" values="0 0 0 0 0.1875  0 0 0 0 0.22265625  0 0 0 0 0.27734375  0 0 0 1 0" class="icon-fecolormatrix"></feColorMatrix></filter> <filter id="colorsf1693841349"><feColorMatrix type="matrix" values="0 0 0 0 0.99609375  0 0 0 0 0.99609375  0 0 0 0 0.99609375  0 0 0 1 0" class="icon-fecolormatrix"></feColorMatrix></filter> <filter id="colorsb957745190"><feColorMatrix type="matrix" values="0 0 0 0 0  0 0 0 0 0  0 0 0 0 0  0 0 0 1 0" class="icon-fecolormatrix"></feColorMatrix></filter></defs></g> <g transform="translate(69.11376190185547,7.451738357543945)"><g data-gra="path-name" fill-rule="" class="tp-name iconsvg-namesvg" transform="translate(0,0)"><g transform="scale(1)"><g><path d="M4.81 1.66Q3.96 3.15 2.77 2.15L2.77 2.15Q1.66 1.26 2.48-0.07L2.48-0.07Q5.03-4.92 5.03-14.36L5.03-14.36 5.03-22.53Q5.03-23.49 5.62-24.09 6.22-24.68 7.18-24.68L7.18-24.68 20.31-24.68Q20.2-26.23 20.13-29.45L20.13-29.45Q20.09-30.89 21.5-30.89L21.5-30.89Q22.9-30.89 22.9-29.45L22.9-29.45Q22.98-26.27 23.05-24.68L23.05-24.68 33.56-24.68Q34.89-24.68 34.89-23.35L34.89-23.35Q34.89-21.98 33.56-21.98L33.56-21.98 23.24-21.98Q23.83-14.1 25.23-9.14L25.23-9.14Q27.79-12.88 29.49-17.76L29.49-17.76Q29.97-19.13 31.26-18.8L31.26-18.8Q32.67-18.43 32.15-16.95L32.15-16.95Q29.97-10.84 26.23-5.92L26.23-5.92Q28.42-0.18 31.15-0.18L31.15-0.18Q32.19-0.18 32.6-3.55L32.6-3.55Q32.71-4.85 33.08-5.59L33.08-5.59Q33.56-6.59 34.34-6.1L34.34-6.1Q34.78-5.85 34.93-4.85L34.93-4.85Q35.04-4.11 34.96-3.33L34.96-3.33Q34.56 0 33.63 1.29L33.63 1.29Q32.74 2.55 30.93 2.55L30.93 2.55Q26.9 2.55 24.2-3.51L24.2-3.51Q21.31-0.37 17.87 1.89L17.87 1.89Q16.69 2.63 15.84 1.7L15.84 1.7Q14.69 0.44 16.32-0.52L16.32-0.52Q20.13-2.89 23.13-6.4L23.13-6.4Q21.2-12.47 20.42-21.98L20.42-21.98 8.58-21.98Q7.81-21.98 7.81-21.2L7.81-21.2 7.81-17.17 16.06-17.17Q17.13-17.17 17.13-16.09L17.13-16.09 17.13-15.98Q16.98-9.58 16.76-7.07L16.76-7.07Q16.54-4.33 15.98-3.63L15.98-3.63Q15.28-2.7 13.76-2.55L13.76-2.55Q12.47-2.48 11.1-2.52L11.1-2.52Q9.43-2.55 9.18-4L9.18-4 9.14-4.03Q8.66-5.14 10.17-5.03L10.17-5.03Q11.21-4.96 12.54-4.96L12.54-4.96Q13.36-4.96 13.62-5.36L13.62-5.36Q13.99-5.73 14.13-7.47L14.13-7.47Q14.32-9.1 14.43-13.1L14.43-13.1Q14.47-13.99 14.28-14.32L14.28-14.32Q14.1-14.61 13.69-14.61L13.69-14.61 7.81-14.61 7.81-14.32Q7.81-3.88 4.81 1.66L4.81 1.66ZM32.08-25.64Q31.23-24.68 30.38-25.42L30.38-25.42Q29.71-25.97 28.3-26.9L28.3-26.9Q27.71-27.34 26.42-28.16L26.42-28.16Q26.05-28.38 25.86-28.49L25.86-28.49Q24.72-29.16 25.68-30.12L25.68-30.12Q26.34-30.78 27.16-30.38L27.16-30.38Q30.23-28.71 32.08-27.23L32.08-27.23Q32.56-26.86 32.52-26.49L32.52-26.49Q32.52-26.12 32.08-25.64L32.08-25.64ZM60.57 2.85L60.57 2.85Q59.24 2.85 59.24 1.52L59.24 1.52 59.24-26.71Q59.24-27.68 59.83-28.27 60.42-28.86 61.38-28.86L61.38-28.86 69.82-28.86Q70.97-28.86 71.41-28.18 71.85-27.49 71.41-26.27L71.41-26.27Q69.97-22.35 67.04-16.58L67.04-16.58Q71.89-12.25 71.89-7.62L71.89-7.62Q71.97-4.03 70-2.81L70-2.81Q69.08-2.15 67.56-1.96L67.56-1.96Q66.49-1.85 65.49-1.89L65.49-1.89Q64.16-1.96 63.83-3L63.83-3Q63.34-4.63 65.49-4.51L65.49-4.51Q66.16-4.51 66.45-4.55L66.45-4.55Q67.49-4.63 68.19-5L68.19-5Q69.3-5.62 69.23-7.88L69.23-7.88Q69.23-11.17 66.16-14.43L66.16-14.43Q64.27-16.21 65.05-17.83L65.05-17.83Q67.16-22.24 68.71-26.23L68.71-26.23 62.68-26.23Q61.9-26.23 61.9-25.46L61.9-25.46 61.9 1.52Q61.9 2.85 60.57 2.85ZM53.91 0.48L44.84 0.48Q43.88 0.48 43.29-0.11 42.7-0.7 42.7-1.66L42.7-1.66 42.7-10.03Q42.07-9.58 41.03-8.95L41.03-8.95Q39.81-8.25 39.03-9.29L39.03-9.29Q38.11-10.51 39.59-11.29L39.59-11.29Q43.99-13.76 47.58-17.35L47.58-17.35 40.15-17.35Q38.92-17.35 38.92-18.57 38.92-19.79 40.15-19.79L40.15-19.79 46.18-19.79 46.18-24.23 41.77-24.23Q40.55-24.23 40.55-25.46 40.55-26.68 41.77-26.68L41.77-26.68 46.18-26.68 46.18-29.38Q46.18-30.64 47.47-30.64L47.47-30.64Q48.73-30.64 48.73-29.38L48.73-29.38 48.73-26.68 51.36-26.68Q52.24-26.68 52.76-26.16 53.28-25.64 53.28-24.75L53.28-24.75 53.28-24.64Q54.28-26.23 55.35-28.6L55.35-28.6Q55.83-29.64 56.94-29.3L56.94-29.3Q58.27-28.9 57.72-27.64L57.72-27.64Q55.83-23.57 52.98-19.79L52.98-19.79 56.46-19.79Q57.68-19.79 57.68-18.57 57.68-17.35 56.46-17.35L56.46-17.35 50.99-17.35Q49.21-15.24 47.51-13.76L47.51-13.76 53.91-13.76Q54.87-13.76 55.46-13.17 56.05-12.58 56.05-11.62L56.05-11.62 56.05-1.66Q56.05-0.7 55.46-0.11 54.87 0.48 53.91 0.48L53.91 0.48ZM46.03-1.81L46.03-1.81 52.69-1.81Q53.47-1.81 53.47-2.59L53.47-2.59 53.47-5.7 45.25-5.7 45.25-2.59Q45.25-1.81 46.03-1.81ZM45.25-11.51L45.25-7.92 53.47-7.92 53.47-10.73Q53.47-11.51 52.69-11.51L52.69-11.51 45.25-11.51ZM48.73-24.23L48.73-19.79 49.84-19.79Q51.84-22.35 53.02-24.23L53.02-24.23 48.73-24.23ZM103.05 2.77Q101.71 2.92 99.01 2.81L99.01 2.81Q97.35 2.74 97.09 1.29L97.09 1.29 97.05 1.22Q96.5-0.04 98.2 0.11L98.2 0.11Q99.9 0.22 102.01 0.22L102.01 0.22Q103.05 0.22 103.6-0.37L103.6-0.37Q104.45-1.29 104.93-5.85L104.93-5.85Q105.41-10.32 105.78-20.72L105.78-20.72Q105.82-21.64 105.63-21.98L105.63-21.98Q105.45-22.27 105.04-22.27L105.04-22.27 92.43-22.27Q90.98-19.28 89.24-16.98L89.24-16.98Q88.36-15.87 87.21-16.72 86.06-17.57 87.02-18.83L87.02-18.83Q87.06-18.91 87.14-19 87.21-19.09 87.25-19.13L87.25-19.13Q87.76-19.76 86.95-19.76L86.95-19.76 83.44-19.76 83.44-9.1Q85.14-9.77 86.65-10.4L86.65-10.4Q87.99-10.95 88.32-9.55L88.32-9.55Q88.61-8.4 87.5-7.92L87.5-7.92Q81.62-5.4 77.74-3.77L77.74-3.77Q77.07-3.48 76.68-3.72 76.29-3.96 76.03-4.7L76.03-4.7Q75.59-6.03 76.74-6.47L76.74-6.47Q78.77-7.21 80.81-8.03L80.81-8.03 80.81-19.76 77.52-19.76Q76.22-19.76 76.22-21.09L76.22-21.09Q76.22-22.38 77.52-22.38L77.52-22.38 80.81-22.38 80.81-29.45Q80.81-30.75 82.14-30.75L82.14-30.75Q83.44-30.75 83.44-29.45L83.44-29.45 83.44-22.38 85.99-22.38Q86.8-22.38 87.26-21.92 87.73-21.46 87.73-20.65L87.73-20.65 87.73-20.54Q87.73-19.76 88.13-20.35L88.13-20.35Q90.8-24.35 92.35-29.6L92.35-29.6Q92.76-31.01 94.09-30.67L94.09-30.67Q95.5-30.34 95.05-28.93L95.05-28.93Q94.31-26.64 93.57-24.83L93.57-24.83 106.45-24.83Q107.52-24.83 108-23.98L108-23.98Q108.56-22.94 108.48-20.5L108.48-20.5Q108.08-9.06 107.56-4.63L107.56-4.63Q107.04 0.04 106 1.26L106 1.26Q105.45 2.03 104.75 2.4L104.75 2.4Q104.12 2.7 103.05 2.77L103.05 2.77ZM90.8-3.44Q90.17-3.18 89.82-3.39 89.47-3.59 89.17-4.25L89.17-4.25Q88.87-4.96 89-5.36 89.13-5.77 89.8-5.99L89.8-5.99Q91.98-6.73 94.68-7.73L94.68-7.73Q95.35-7.99 96.72-8.47L96.72-8.47Q99.38-9.47 100.75-9.95L100.75-9.95Q102.05-10.43 102.27-9.14L102.27-9.14Q102.49-8.14 101.44-7.7 100.38-7.25 98.23-6.4L98.23-6.4Q93.02-4.29 90.8-3.44L90.8-3.44ZM100.34-14.95L91.5-14.95Q90.28-14.95 90.28-16.21L90.28-16.21Q90.28-17.43 91.5-17.43L91.5-17.43 100.34-17.43Q101.56-17.43 101.56-16.21L101.56-16.21Q101.56-14.95 100.34-14.95L100.34-14.95ZM137.49 2.81L137.49 2.81Q136.09 2.81 136.09 1.44L136.09 1.44 136.09-13.21 130.35-13.21Q128.98-13.21 128.98-14.61L128.98-14.61Q128.98-15.98 130.35-15.98L130.35-15.98 136.09-15.98 136.09-25.9 131.13-25.9Q129.8-25.9 129.8-27.27L129.8-27.27Q129.8-28.6 131.13-28.6L131.13-28.6 144.15-28.6Q145.48-28.6 145.48-27.27L145.48-27.27Q145.48-25.9 144.15-25.9L144.15-25.9 138.86-25.9 138.86-15.98 144.78-15.98Q146.15-15.98 146.15-14.61L146.15-14.61Q146.15-13.21 144.78-13.21L144.78-13.21 138.86-13.21 138.86 1.44Q138.86 2.81 137.49 2.81ZM122.36 2.66L122.36 2.66Q121.03 2.66 121.03 1.33L121.03 1.33 121.03-5.03Q119.47-4.74 116.55-4.14L116.55-4.14Q115.33-3.92 114.77-3.81L114.77-3.81Q113.55-3.55 113.29-4.88L113.29-4.88Q113.15-5.62 113.33-5.96L113.33-5.96Q113.52-6.33 114.18-6.44L114.18-6.44Q117.77-7.07 121.03-7.62L121.03-7.62 121.03-12.8 117.25-12.8Q116.96-12.8 116.33-12.76L116.33-12.76Q115.33-12.65 114.96-12.76L114.96-12.76Q114.29-12.91 114.03-13.54L114.03-13.54Q113.85-14.13 114.03-14.87L114.03-14.87Q114.18-15.32 114.64-16.28 115.11-17.24 115.29-17.76L115.29-17.76Q116.18-19.98 117.14-23.94L117.14-23.94 114.52-23.94Q113.22-23.94 113.22-25.27L113.22-25.27Q113.22-26.57 114.52-26.57L114.52-26.57 117.77-26.57Q118.1-28.16 118.29-29.45L118.29-29.45Q118.51-30.89 119.95-30.6L119.95-30.6Q121.32-30.34 121.06-29.01L121.06-29.01Q120.81-27.79 120.51-26.57L120.51-26.57 126.72-26.57Q128.02-26.57 128.02-25.27L128.02-25.27Q128.02-23.94 126.72-23.94L126.72-23.94 119.88-23.94Q118.44-18.83 116.92-15.32L116.92-15.32 121.03-15.32 121.03-19.57Q121.03-20.9 122.36-20.9L122.36-20.9Q123.69-20.9 123.69-19.57L123.69-19.57 123.69-15.32 126.61-15.32Q127.87-15.32 127.87-14.06 127.87-12.8 126.61-12.8L126.61-12.8 123.69-12.8 123.69-8.1 127.21-8.73Q128.46-8.95 128.54-7.66L128.54-7.66Q128.61-6.55 127.54-6.33L127.54-6.33 123.69-5.55 123.69 1.33Q123.69 2.66 122.36 2.66Z" transform="translate(-2.131606340408325, 30.889999389648438)"></path></g> <!----> <!----> <!----> <!----> <!----> <!----> <!----></g></g> <g data-gra="path-slogan" fill-rule="" class="tp-slogan iconsvg-slogansvg" fill="#303947" transform="translate(5,40.74653625488281)"><rect x="0" height="1" y="3.2300000190734863" width="14.51919174194336"></rect> <rect height="1" y="3.2300000190734863" width="14.51919174194336" x="119.49919509887695"></rect> <g transform="translate(17.51919174194336,0)"><g transform="scale(1)"><path d="M6.72-5.04L6.72-5.04L5.78-5.04Q5.43-6.48 3.79-6.52L3.79-6.52Q1.52-6.41 1.45-3.63L1.45-3.63Q1.45-0.66 3.83-0.66L3.83-0.66Q5.47-0.70 5.86-2.66L5.86-2.66L6.80-2.66Q6.37 0.04 3.63 0.12L3.63 0.12Q0.51 0 0.43-3.59L0.43-3.59Q0.59-7.19 3.79-7.34L3.79-7.34Q6.33-7.27 6.72-5.04ZM8.91-4.22L12.66-4.22L12.66-7.15L13.63-7.15L13.63 0L12.66 0L12.66-3.32L8.91-3.32L8.91 0L7.93 0L7.93-7.15L8.91-7.15L8.91-4.22ZM16.21-0.86L20.51-0.86L20.51 0L15.23 0L15.23-7.15L20.43-7.15L20.43-6.33L16.21-6.33L16.21-4.10L20.12-4.10L20.12-3.24L16.21-3.24L16.21-0.86ZM22.93-7.15L26.52-1.37L26.52-7.15L27.46-7.15L27.46 0L26.37 0L22.73-5.78L22.70-5.78L22.70 0L21.76 0L21.76-7.15L22.93-7.15ZM34.30-3.01L32.11-3.01L32.11-3.83L35.23-3.83L35.23 0L34.61 0L34.38-0.90Q33.55 0.08 32.03 0.12L32.03 0.12Q30.59 0.12 29.80-0.63L29.80-0.63Q28.63-1.72 28.67-3.63L28.67-3.63Q28.95-7.19 32.07-7.34L32.07-7.34Q34.73-7.19 35.12-5L35.12-5L34.18-5Q33.79-6.48 32.03-6.52L32.03-6.52Q29.80-6.37 29.69-3.59L29.69-3.59Q29.69-0.63 32.07-0.63L32.07-0.63Q32.93-0.63 33.55-1.09L33.55-1.09Q34.34-1.72 34.30-3.01L34.30-3.01ZM39.65 0L36.76 0L36.76-7.15L39.69-7.15Q42.58-6.99 42.70-3.67L42.70-3.67Q42.54-0.08 39.65 0L39.65 0ZM39.53-6.37L37.73-6.37L37.73-0.82L39.61-0.82Q41.64-0.94 41.72-3.59L41.72-3.59Q41.68-6.29 39.53-6.37L39.53-6.37ZM48.63-2.66L48.63-7.15L49.61-7.15L49.61-2.54Q49.49 0.04 46.68 0.12L46.68 0.12Q44.06 0.04 43.95-2.38L43.95-2.38L43.95-7.15L44.92-7.15L44.92-2.66Q44.96-0.70 46.72-0.66L46.72-0.66Q48.63-0.70 48.63-2.66L48.63-2.66ZM53.28-1.60L53.28-2.30L54.18-2.30L54.18-1.80Q54.18-0.63 55.27-0.63L55.27-0.63Q56.41-0.63 56.41-1.88L56.41-1.88L56.41-7.15L57.38-7.15L57.38-1.91Q57.34 0.08 55.31 0.12L55.31 0.12Q53.40 0.08 53.28-1.60L53.28-1.60ZM63.59-2.66L63.59-7.15L64.57-7.15L64.57-2.54Q64.45 0.04 61.64 0.12L61.64 0.12Q59.02 0.04 58.91-2.38L58.91-2.38L58.91-7.15L59.88-7.15L59.88-2.66Q59.92-0.70 61.68-0.66L61.68-0.66Q63.59-0.70 63.59-2.66L63.59-2.66ZM67.23-7.15L70.82-1.37L70.82-7.15L71.76-7.15L71.76 0L70.66 0L67.03-5.78L66.99-5.78L66.99 0L66.05 0L66.05-7.15L67.23-7.15ZM78.87-7.15L76.45-3.67L78.98 0L77.77 0L75.82-2.93L73.87 0L72.70 0L75.27-3.67L72.85-7.15L74.06-7.15L75.86-4.41L77.70-7.15L78.87-7.15ZM84.61-2.66L84.61-7.15L85.59-7.15L85.59-2.54Q85.47 0.04 82.66 0.12L82.66 0.12Q80.04 0.04 79.92-2.38L79.92-2.38L79.92-7.15L80.90-7.15L80.90-2.66Q80.94-0.70 82.70-0.66L82.70-0.66Q84.61-0.70 84.61-2.66L84.61-2.66ZM91.80 0L91.09-2.07L88.20-2.07L87.46 0L86.48 0L89.18-7.15L90.27-7.15L92.85 0L91.80 0ZM89.65-6.09L88.52-2.93L90.74-2.93L89.69-6.09L89.65-6.09ZM94.88-7.15L98.48-1.37L98.48-7.15L99.41-7.15L99.41 0L98.32 0L94.69-5.78L94.65-5.78L94.65 0L93.71 0L93.71-7.15L94.88-7.15Z" transform="translate(-0.4296875, 7.34375)"></path></g></g></g></g></g><defs v-gra="od"></defs></svg>